<svg width="101" height="30" viewBox="0 0 101 30" fill="none" xmlns="http://www.w3.org/2000/svg">
<path d="M33.4 24H40.66C47.47 24 52.27 19.71 52.27 13.68C52.27 7.65 47.47 3.39 40.66 3.39H33.4V24ZM37.15 20.61V6.78H41.05C45.4 6.78 48.46 9.63 48.46 13.68C48.46 17.73 45.4 20.61 41.05 20.61H37.15ZM56.2223 24H59.9723V10.23L66.7523 22.8L73.5623 10.23V24H77.2823V3.39H73.5623L66.7523 15.96L59.9723 3.39H56.2223V24ZM91.9007 24.36C94.9307 24.36 97.6907 23.07 99.6707 21L97.0307 18.54C95.7407 20.01 93.9107 20.94 91.9007 20.94C88.0907 20.94 84.8807 17.64 84.8807 13.68C84.8807 9.75 88.0907 6.45 91.9007 6.45C93.8807 6.45 95.7407 7.38 97.0007 8.85L99.6707 6.36C97.6907 4.32 94.9307 3.03 91.9007 3.03C86.0207 3.03 81.0707 7.89 81.0707 13.68C81.0707 19.47 86.0207 24.36 91.9007 24.36Z" fill="#0A033C"/>
<rect width="25" height="30" rx="5" fill="#FF6652"/>
<g clip-path="url(#clip0_13_856)">
<path d="M5.75321 8.12439C5.75272 8.12439 5.75218 8.12439 5.75169 8.12439C5.58145 8.12439 5.42133 8.19075 5.30042 8.31136C5.17817 8.4333 5.11084 8.59566 5.11084 8.76851V18.427C5.11084 18.7812 5.40011 19.0701 5.75575 19.071C7.25503 19.0745 9.76692 19.387 11.4998 21.2004V11.0925C11.4998 10.9725 11.4691 10.8597 11.4112 10.7663C9.98898 8.47591 7.25588 8.1279 5.75321 8.12439Z" fill="white"/>
<path d="M18.8889 18.427V8.76839C18.8889 8.59554 18.8215 8.43318 18.6993 8.31124C18.5784 8.19063 18.4181 8.12427 18.2481 8.12427C18.2475 8.12427 18.247 8.12427 18.2465 8.12427C16.7439 8.12784 14.0108 8.47584 12.5885 10.7663C12.5306 10.8596 12.5 10.9724 12.5 11.0925V21.2003C14.2329 19.3869 16.7447 19.0744 18.244 19.0708C18.5996 19.0699 18.8889 18.7811 18.8889 18.427Z" fill="white"/>
<path d="M20.3562 10.3518H19.8891V18.427C19.8891 19.3314 19.1524 20.0687 18.2467 20.071C16.975 20.074 14.8781 20.3227 13.3931 21.7282C15.9614 21.0994 18.669 21.5081 20.212 21.8598C20.4047 21.9037 20.6038 21.8583 20.7581 21.7353C20.9119 21.6126 21.0002 21.4291 21.0002 21.2322V10.9958C21.0002 10.6407 20.7113 10.3518 20.3562 10.3518Z" fill="white"/>
<path d="M4.11103 18.427V10.3518H3.644C3.28897 10.3518 3 10.6407 3 10.9958V21.232C3 21.429 3.08824 21.6124 3.24206 21.7351C3.3963 21.8581 3.59521 21.9036 3.78818 21.8596C5.33122 21.5079 8.0388 21.0992 10.6071 21.728C9.12208 20.3226 7.02523 20.074 5.75352 20.0709C4.84788 20.0687 4.11103 19.3314 4.11103 18.427Z" fill="white"/>
</g>
<defs>
<clipPath id="clip0_13_856">
<rect width="18" height="18" fill="white" transform="translate(3 6)"/>
</clipPath>
</defs>
</svg>
